<?xml version="1.0" encoding="UTF-8" standalone="no"?>
<!-- Created with Inkscape (http://www.inkscape.org/) -->

<svg
   width="290mm"
   height="1225mm"
   viewBox="0 0 290 1225"
   version="1.1"
   id="svg1"
   inkscape:version="1.4 (86a8ad7, 2024-10-11)"
   sodipodi:docname="warre-hive-roof_23_5.svg"
   xmlns:inkscape="http://www.inkscape.org/namespaces/inkscape"
   xmlns:sodipodi="http://sodipodi.sourceforge.net/DTD/sodipodi-0.dtd"
   xmlns="http://www.w3.org/2000/svg"
   xmlns:svg="http://www.w3.org/2000/svg">
  <sodipodi:namedview
     id="namedview1"
     pagecolor="#ffffff"
     bordercolor="#000000"
     borderopacity="0.25"
     inkscape:showpageshadow="2"
     inkscape:pageopacity="0.0"
     inkscape:pagecheckerboard="0"
     inkscape:deskcolor="#d1d1d1"
     inkscape:document-units="mm"
     inkscape:zoom="0.31516693"
     inkscape:cx="1556.3181"
     inkscape:cy="3701.2132"
     inkscape:window-width="1680"
     inkscape:window-height="979"
     inkscape:window-x="-8"
     inkscape:window-y="-8"
     inkscape:window-maximized="1"
     inkscape:current-layer="layer1" />
  <defs
     id="defs1" />
  <g
     inkscape:label="Layer 1"
     inkscape:groupmode="layer"
     id="layer1">
    <g
       id="g2">
      <path
         id="rect2-2-5"
         style="fill:none;stroke:#ff0000;stroke-width:0.0939969"
         d="M 270.29234,702.02305 V 1201.9291 H 20.386342 V 702.02305 Z" />
      <g
         id="g1">
        <g
           id="g4-5-3"
           transform="matrix(0,1.0729046,-0.99997963,0,300.89375,656.68778)">
          <g
             id="g2-1-6"
             transform="translate(2.9929755)">
            <g
               id="g3-3-3"
               transform="translate(-0.47464848,-6.2517147)">
              <path
                 id="path3-3-3"
                 style="fill:none;stroke:#ff0000;stroke-width:0.1"
                 d="m 97.049184,129.83592 a 1.9840671,1.9840671 0 0 1 -1.984067,1.98407 1.9840671,1.9840671 0 0 1 -1.984067,-1.98407 1.9840671,1.9840671 0 0 1 1.984067,-1.98406 1.9840671,1.9840671 0 0 1 1.984067,1.98406 z" />
              <path
                 id="path3-09-0-9"
                 style="fill:none;stroke:#ff0000;stroke-width:0.1"
                 d="m 97.049184,197.85704 a 1.9840671,1.9840671 0 0 1 -1.984067,1.98407 1.9840671,1.9840671 0 0 1 -1.984067,-1.98407 1.9840671,1.9840671 0 0 1 1.984067,-1.98407 1.9840671,1.9840671 0 0 1 1.984067,1.98407 z" />
              <path
                 id="path3-0-2-2"
                 style="fill:none;stroke:#ff0000;stroke-width:0.1"
                 d="m 97.049184,61.814793 a 1.9840671,1.9840671 0 0 1 -1.984067,1.984067 1.9840671,1.9840671 0 0 1 -1.984067,-1.984067 1.9840671,1.9840671 0 0 1 1.984067,-1.984067 1.9840671,1.9840671 0 0 1 1.984067,1.984067 z" />
            </g>
          </g>
          <path
             id="rect3-9-1"
             style="fill:none;stroke:#ff0000;stroke-width:0.105211"
             d="M 86.636048,30.607639 H 108.53084 V 215.50243 H 86.636048 Z" />
        </g>
        <g
           id="g4-5-3-7"
           transform="matrix(0,1.0729046,-0.99997963,0,300.89375,1036.1319)">
          <g
             id="g2-1-6-6"
             transform="translate(2.9929755)">
            <g
               id="g3-3-3-1"
               transform="translate(-0.47464848,-6.2517147)">
              <path
                 id="path3-3-3-8"
                 style="fill:none;stroke:#ff0000;stroke-width:0.1"
                 d="m 97.049184,129.83592 a 1.9840671,1.9840671 0 0 1 -1.984067,1.98407 1.9840671,1.9840671 0 0 1 -1.984067,-1.98407 1.9840671,1.9840671 0 0 1 1.984067,-1.98406 1.9840671,1.9840671 0 0 1 1.984067,1.98406 z" />
              <path
                 id="path3-09-0-9-9"
                 style="fill:none;stroke:#ff0000;stroke-width:0.1"
                 d="m 97.049184,197.85704 a 1.9840671,1.9840671 0 0 1 -1.984067,1.98407 1.9840671,1.9840671 0 0 1 -1.984067,-1.98407 1.9840671,1.9840671 0 0 1 1.984067,-1.98407 1.9840671,1.9840671 0 0 1 1.984067,1.98407 z" />
              <path
                 id="path3-0-2-2-2"
                 style="fill:none;stroke:#ff0000;stroke-width:0.1"
                 d="m 97.049184,61.814793 a 1.9840671,1.9840671 0 0 1 -1.984067,1.984067 1.9840671,1.9840671 0 0 1 -1.984067,-1.984067 1.9840671,1.9840671 0 0 1 1.984067,-1.984067 1.9840671,1.9840671 0 0 1 1.984067,1.984067 z" />
            </g>
          </g>
          <path
             id="rect3-9-1-7"
             style="fill:none;stroke:#ff0000;stroke-width:0.105211"
             d="M 86.636048,30.607639 H 108.53084 V 215.50243 H 86.636048 Z" />
        </g>
      </g>
    </g>
  </g>
</svg>
